# xmcd
#
# Track frame offsets:
#	150
#	16522
#	33540
#	57977
#	83280
#	102032
#	121385
#	139027
#
# Disc length: 2101 seconds
#
# Revision: 0
# Processed by: cddbd v1.5.1PL0 Copyright (c) Steve Scherf et al.
# Submitted via: dBpowerAMP V4.0
#
DISCID=54083308
DTITLE=J. Blackfoot - Loveaholic
DYEAR=1900
DGENRE=
TTITLE0=After The Tone
TTITLE1=Loveaholic
TTITLE2=Just One Lifetime
TTITLE3=That"s How Lies Get Out
TTITLE4=Leading Lady
TTITLE5=She's Only Human
TTITLE6=Take Me To Your House
TTITLE7=Comebacks Don't Come Easy
EXTD=
EXTT0=
EXTT1=
EXTT2=
EXTT3=
EXTT4=
EXTT5=
EXTT6=
EXTT7=
PLAYORDER=
